<?xml version="1.0" encoding="utf-8"?>
<svg viewBox="114.596 128.304 251.069 213.236" xmlns="http://www.w3.org/2000/svg">
  <path d="M 241.711 295.414 C 263.076 295.414 283.105 287.212 298.173 272.143 C 313.243 257.073 321.445 237.045 321.445 215.681 C 321.445 194.317 313.243 174.288 298.173 159.219 C 283.105 144.149 263.076 135.947 241.711 135.947 C 220.347 135.947 200.319 144.149 185.249 159.219 C 170.18 174.288 161.978 194.317 161.978 215.681 C 161.978 237.045 170.18 257.073 185.249 272.143 C 200.319 287.212 220.347 295.414 241.711 295.414 Z M 246.289 281.871 C 244.763 282.061 243.237 282.061 241.711 282.061 C 239.613 282.061 237.515 281.871 235.417 281.68 C 228.55 270.998 223.399 259.553 220.347 247.536 L 254.11 247.536 C 255.255 250.397 257.353 253.068 259.833 254.785 C 256.59 264.322 252.012 273.288 246.289 281.871 Z M 264.411 278.056 C 268.035 271.38 270.896 264.703 273.185 257.646 C 278.717 256.501 283.105 252.686 285.202 247.536 L 299.89 247.536 C 292.26 261.461 279.48 272.333 264.411 278.056 Z M 307.902 215.681 C 307.902 221.976 306.948 228.08 305.422 233.993 L 284.821 233.993 C 283.676 231.513 281.769 229.224 279.48 227.507 C 279.862 223.311 280.053 219.114 280.053 214.917 C 280.053 209.004 279.671 203.091 278.908 197.369 L 305.231 197.369 C 307.139 203.091 307.902 209.386 307.902 215.681 Z M 299.89 183.825 L 276.619 183.825 C 274.139 173.334 270.515 163.415 265.555 153.877 C 280.053 159.41 292.26 170.282 299.89 183.825 Z M 266.7 214.917 C 266.7 218.16 266.509 221.403 266.318 224.646 C 260.977 225.79 256.59 229.224 254.491 233.993 L 217.677 233.993 C 216.914 228.27 216.342 222.357 216.342 216.634 C 216.342 213.01 216.532 209.386 216.914 205.762 C 221.873 204.808 225.879 201.565 228.359 197.369 L 265.555 197.369 C 266.318 203.091 266.7 209.004 266.7 214.917 Z M 236.752 149.681 C 238.469 149.49 240.185 149.49 241.711 149.49 C 243.619 149.49 245.527 149.49 247.434 149.681 C 254.301 160.363 259.451 171.808 262.503 183.825 L 229.313 183.825 C 228.168 180.582 226.07 177.721 223.399 175.623 C 226.833 166.467 231.22 157.884 236.752 149.681 Z M 218.63 153.496 C 215.388 159.6 212.527 166.086 210.238 172.571 C 204.324 173.716 199.556 178.103 197.648 183.634 L 183.723 183.634 C 191.163 170.092 203.562 159.219 218.63 153.496 Z M 175.521 215.681 C 175.521 209.386 176.475 203.091 178.192 197.369 L 198.984 197.369 C 200.128 199.467 201.845 201.375 203.752 202.901 C 203.371 207.478 202.989 212.056 202.989 216.634 C 202.989 222.547 203.371 228.27 204.134 233.993 L 178.192 233.993 C 176.284 228.08 175.521 221.976 175.521 215.681 Z M 206.423 247.345 C 208.902 257.646 212.527 267.755 217.486 277.293 C 202.989 271.571 190.972 260.889 183.533 247.345 L 206.423 247.345 Z" style="fill: rgb(252, 215, 215);"/>
  <g data-v-1084b650="" id="g-1" fill="#FD2D01" transform="matrix(2.8, 0, 0, 2.8, 85.635475, 259.094879)">
    <path d="M 18.137 25.794 C 16.683 25.794 15.467 25.304 14.487 24.324 C 13.507 23.344 13.017 22.121 13.017 20.654 C 13.017 19.214 13.507 18.001 14.487 17.014 C 15.467 16.034 16.683 15.544 18.137 15.544 C 19.597 15.544 20.85 16.001 21.897 16.914 L 20.537 18.404 C 19.837 17.858 19.037 17.584 18.137 17.584 C 17.217 17.591 16.473 17.881 15.907 18.454 C 15.347 19.021 15.067 19.748 15.067 20.634 C 15.067 21.588 15.35 22.344 15.917 22.904 C 16.483 23.464 17.227 23.744 18.147 23.744 C 18.887 23.744 19.453 23.601 19.847 23.314 L 19.847 21.554 L 18.487 21.564 L 18.487 19.644 L 21.897 19.644 L 21.897 24.434 C 20.857 25.341 19.603 25.794 18.137 25.794 Z M 25.567 18.954 L 25.567 19.714 C 26.06 19.214 26.657 18.964 27.357 18.964 C 27.577 18.964 27.787 18.981 27.987 19.014 L 27.687 20.904 C 27.467 20.704 27.15 20.598 26.737 20.584 C 26.27 20.618 25.88 20.954 25.567 21.594 L 25.567 25.794 L 23.657 25.794 L 23.657 19.164 L 25.567 18.954 Z M 32.337 25.864 C 31.343 25.864 30.513 25.531 29.847 24.864 C 29.187 24.198 28.857 23.371 28.857 22.384 C 28.857 21.391 29.187 20.561 29.847 19.894 C 30.513 19.228 31.343 18.894 32.337 18.894 C 33.33 18.894 34.16 19.228 34.827 19.894 C 35.493 20.561 35.827 21.391 35.827 22.384 C 35.827 23.378 35.493 24.204 34.827 24.864 C 34.16 25.531 33.33 25.864 32.337 25.864 Z M 32.337 24.214 C 32.85 24.214 33.27 24.038 33.597 23.684 C 33.923 23.338 34.087 22.904 34.087 22.384 C 34.087 21.864 33.923 21.431 33.597 21.084 C 33.27 20.731 32.847 20.554 32.327 20.554 C 31.813 20.554 31.393 20.731 31.067 21.084 C 30.747 21.431 30.587 21.864 30.587 22.384 C 30.587 22.904 30.747 23.338 31.067 23.684 C 31.393 24.038 31.817 24.214 32.337 24.214 Z M 41.247 23.374 L 41.247 18.954 L 43.157 18.954 L 43.157 25.794 L 41.247 25.794 L 41.247 25.174 C 40.787 25.588 40.24 25.794 39.607 25.794 C 38.74 25.794 38.08 25.531 37.627 25.004 C 37.167 24.478 36.937 23.874 36.937 23.194 L 36.937 18.954 L 38.857 18.954 L 38.857 22.714 C 38.857 23.168 38.97 23.521 39.197 23.774 C 39.423 24.028 39.767 24.161 40.227 24.174 C 40.627 24.148 40.967 23.881 41.247 23.374 Z M 46.697 28.674 L 44.787 28.664 L 44.787 19.164 L 46.697 18.954 L 46.697 19.504 C 47.21 19.138 47.713 18.954 48.207 18.954 C 49.253 18.954 50.083 19.298 50.697 19.984 C 51.317 20.664 51.627 21.461 51.627 22.374 C 51.627 23.288 51.317 24.084 50.697 24.764 C 50.083 25.451 49.253 25.794 48.207 25.794 C 47.52 25.748 47.017 25.561 46.697 25.234 L 46.697 28.674 Z M 46.697 21.754 L 46.697 22.864 C 46.79 23.631 47.27 24.081 48.137 24.214 C 49.23 24.128 49.847 23.561 49.987 22.514 C 49.94 21.234 49.323 20.571 48.137 20.524 C 47.27 20.664 46.79 21.074 46.697 21.754 Z M 56.077 25.864 C 55.083 25.864 54.257 25.531 53.597 24.864 C 52.93 24.198 52.597 23.371 52.597 22.384 C 52.597 21.391 52.93 20.561 53.597 19.894 C 54.257 19.228 55.083 18.894 56.077 18.894 C 57.07 18.894 57.9 19.228 58.567 19.894 C 59.233 20.561 59.567 21.391 59.567 22.384 C 59.567 23.378 59.233 24.204 58.567 24.864 C 57.9 25.531 57.07 25.864 56.077 25.864 Z M 56.077 24.214 C 56.597 24.214 57.017 24.038 57.337 23.684 C 57.663 23.338 57.827 22.904 57.827 22.384 C 57.827 21.864 57.663 21.431 57.337 21.084 C 57.017 20.731 56.593 20.554 56.067 20.554 C 55.553 20.554 55.133 20.731 54.807 21.084 C 54.487 21.431 54.327 21.864 54.327 22.384 C 54.327 22.904 54.487 23.338 54.807 23.684 C 55.133 24.038 55.557 24.214 56.077 24.214 Z M 62.757 21.424 L 62.757 25.794 L 60.837 25.794 L 60.837 19.164 L 62.757 18.954 L 62.757 19.564 C 63.183 19.164 63.73 18.964 64.397 18.964 C 65.257 18.964 65.917 19.224 66.377 19.744 C 66.877 19.224 67.627 18.964 68.627 18.964 C 69.493 18.964 70.157 19.224 70.617 19.744 C 71.07 20.271 71.297 20.878 71.297 21.564 L 71.297 25.794 L 69.387 25.794 L 69.387 22.034 C 69.387 21.581 69.283 21.228 69.077 20.974 C 68.87 20.728 68.537 20.598 68.077 20.584 C 67.697 20.611 67.37 20.861 67.097 21.334 C 67.07 21.474 67.057 21.618 67.057 21.764 L 67.057 25.794 L 65.147 25.794 L 65.147 22.034 C 65.147 21.581 65.043 21.228 64.837 20.974 C 64.63 20.728 64.297 20.598 63.837 20.584 C 63.417 20.611 63.057 20.891 62.757 21.424 Z M 73.867 20.944 L 73.117 19.784 C 73.983 19.238 74.987 18.964 76.127 18.964 C 76.947 18.964 77.593 19.191 78.067 19.644 C 78.547 20.104 78.787 20.788 78.787 21.694 L 78.787 25.794 L 76.877 25.794 L 76.877 25.254 C 76.317 25.614 75.813 25.794 75.367 25.794 C 74.46 25.794 73.777 25.601 73.317 25.214 C 72.863 24.828 72.637 24.294 72.637 23.614 C 72.637 22.974 72.853 22.404 73.287 21.904 C 73.713 21.404 74.407 21.154 75.367 21.154 C 75.813 21.154 76.317 21.291 76.877 21.564 L 76.877 21.354 C 76.863 20.854 76.497 20.581 75.777 20.534 C 74.957 20.534 74.32 20.671 73.867 20.944 Z M 76.877 23.744 L 76.877 22.974 C 76.697 22.621 76.263 22.444 75.577 22.444 C 74.757 22.538 74.323 22.858 74.277 23.404 C 74.323 23.944 74.757 24.238 75.577 24.284 C 76.263 24.284 76.697 24.104 76.877 23.744 Z M 82.417 21.454 L 82.417 25.794 L 80.497 25.794 L 80.497 19.164 L 82.417 18.954 L 82.417 19.574 C 82.877 19.168 83.423 18.964 84.057 18.964 C 84.923 18.964 85.583 19.224 86.037 19.744 C 86.49 20.271 86.717 20.878 86.717 21.564 L 86.717 25.794 L 84.807 25.794 L 84.807 22.034 C 84.807 21.581 84.693 21.228 84.467 20.974 C 84.233 20.728 83.887 20.598 83.427 20.584 C 83.033 20.611 82.697 20.901 82.417 21.454 Z M 90.237 25.794 L 88.327 25.794 L 88.327 18.954 L 90.237 18.954 L 90.237 25.794 Z M 88.257 17.324 C 88.257 17.598 88.347 17.824 88.527 18.004 C 88.713 18.184 88.967 18.274 89.287 18.274 C 89.6 18.274 89.85 18.184 90.037 18.004 C 90.217 17.824 90.307 17.598 90.307 17.324 C 90.307 17.051 90.217 16.821 90.037 16.634 C 89.85 16.448 89.593 16.354 89.267 16.354 C 88.96 16.354 88.713 16.448 88.527 16.634 C 88.347 16.821 88.257 17.051 88.257 17.324 Z M 92.787 20.944 L 92.037 19.784 C 92.903 19.238 93.907 18.964 95.047 18.964 C 95.867 18.964 96.517 19.191 96.997 19.644 C 97.47 20.104 97.707 20.788 97.707 21.694 L 97.707 25.794 L 95.797 25.794 L 95.797 25.254 C 95.243 25.614 94.743 25.794 94.297 25.794 C 93.383 25.794 92.7 25.601 92.247 25.214 C 91.787 24.828 91.557 24.294 91.557 23.614 C 91.557 22.974 91.773 22.404 92.207 21.904 C 92.633 21.404 93.33 21.154 94.297 21.154 C 94.737 21.154 95.237 21.291 95.797 21.564 L 95.797 21.354 C 95.79 20.854 95.427 20.581 94.707 20.534 C 93.887 20.534 93.247 20.671 92.787 20.944 Z M 95.797 23.744 L 95.797 22.974 C 95.617 22.621 95.183 22.444 94.497 22.444 C 93.677 22.538 93.243 22.858 93.197 23.404 C 93.243 23.944 93.677 24.238 94.497 24.284 C 95.183 24.284 95.617 24.104 95.797 23.744 Z"/>
  </g>
</svg>